<svg xmlns="http://www.w3.org/2000/svg" width="1029" height="518" viewBox="0 0 1029 518" fill="none">
  <path
    d="M78.5289 208.688H270.789V271.018H67.6974C30.3013 271.018 0 240.693 0 203.268V0.0178908H67.6974V197.848C67.6974 203.837 72.5445 208.688 78.5289 208.688ZM227.463 62.3479H352.026C358.011 62.3479 362.858 67.1988 362.858 73.1879V271.018H430.555V73.1879C430.555 67.1988 435.402 62.3479 441.387 62.3479H565.95V0.0178908H227.463V62.3479ZM906.955 0.0178908C906.955 0.0178908 900.998 -0.388609 897.992 2.67369C894.282 6.46769 890.464 16.8741 890.464 16.8741L825.908 180.856L761.352 16.8741C761.352 16.8741 757.534 6.46769 753.824 2.67369C750.818 -0.388609 744.861 0.0178908 744.861 0.0178908H622.816V270.964H690.513V64.6243C690.513 60.8845 693.817 57.8493 697.175 57.8493C704.026 57.8493 706.896 66.0606 710.362 74.8952C713.828 83.7298 784.585 260.747 784.585 260.747C787.023 266.953 793.034 271.045 799.695 271.045H852.12C858.782 271.045 864.793 266.953 867.23 260.747C867.23 260.747 937.988 83.7298 941.454 74.8952C944.92 66.0606 947.79 57.8493 954.641 57.8493C961.492 57.8493 961.303 60.8845 961.303 64.6243V271.018H1029V0.0178908H906.955Z"
    fill="#FF5E4F" />
  <path
    d="M964.347 517.022C951.11 517.022 939.4 514.137 929.218 508.367C919.205 502.427 911.399 494.196 905.799 483.675C900.199 472.983 897.398 460.764 897.398 447.018C897.398 433.781 900.199 421.817 905.799 411.126C911.399 400.435 919.121 392.034 928.964 385.925C938.976 379.815 950.092 376.761 962.31 376.761C975.378 376.761 986.748 379.646 996.421 385.416C1006.09 391.016 1013.48 398.992 1018.57 409.344C1023.66 419.526 1026.2 431.321 1026.2 444.727C1026.2 446.764 1026.03 449.819 1025.7 453.891H919.036C920.224 468.147 924.975 479.177 933.291 486.984C941.607 494.621 952.043 498.439 964.602 498.439C985.815 498.439 1000.32 489.445 1008.13 471.456L1024.17 484.947C1018.57 495.639 1010.34 503.7 999.476 509.13C988.784 514.391 977.075 517.022 964.347 517.022ZM1003.55 437.091V436.582C1003.55 423.854 999.73 413.841 992.094 406.544C984.627 399.077 974.699 395.343 962.31 395.343C951.28 395.343 941.776 398.992 933.8 406.289C925.824 413.587 920.987 423.854 919.29 437.091H1003.55Z"
    fill="black" />
  <path
    d="M837.197 517.022C820.566 517.022 807.075 513.203 796.723 505.566C786.54 497.93 780.431 488.002 778.395 475.783L799.268 467.128C799.608 477.311 803.171 485.287 809.96 491.057C816.748 496.657 825.827 499.457 837.197 499.457C846.701 499.457 854.337 497.76 860.107 494.366C865.877 490.802 868.762 485.541 868.762 478.583C868.762 474.171 867.235 470.607 864.18 467.892C861.125 465.177 857.222 463.14 852.471 461.783C847.889 460.255 841.609 458.643 833.633 456.946C822.942 454.74 814.202 452.449 807.414 450.073C800.626 447.697 794.856 443.879 790.104 438.618C785.352 433.188 782.977 425.89 782.977 416.726C782.977 409.259 785.352 402.471 790.104 396.362C794.856 390.252 801.22 385.501 809.196 382.106C817.172 378.543 825.827 376.761 835.161 376.761C850.264 376.761 862.738 380.325 872.581 387.452C882.593 394.58 888.278 403.998 889.636 415.708L869.78 423.09C869.102 414.096 865.708 407.053 859.598 401.962C853.659 396.871 845.513 394.325 835.161 394.325C825.657 394.325 818.19 396.362 812.76 400.435C807.329 404.338 804.614 409.344 804.614 415.453C804.614 421.902 807.584 426.654 813.523 429.709C819.463 432.594 828.542 435.224 840.761 437.6C851.452 439.806 860.192 442.182 866.98 444.727C873.768 447.103 879.538 450.922 884.29 456.182C889.042 461.274 891.418 468.231 891.418 477.056C891.418 489.445 886.581 499.203 876.908 506.33C867.235 513.458 853.998 517.022 837.197 517.022Z"
    fill="black" />
  <path
    d="M704.492 379.052H725.366V402.471C730.118 393.307 736.482 386.773 744.458 382.87C752.434 378.797 760.664 376.761 769.15 376.761C771.525 376.761 774.241 377.015 777.295 377.524V399.162C773.562 398.313 770.083 397.889 766.859 397.889C753.961 397.889 743.779 401.792 736.312 409.599C729.014 417.405 725.366 429.963 725.366 447.273V511.421H704.492V379.052Z"
    fill="black" />
  <path
    d="M631.851 516.931C618.614 516.931 606.904 514.046 596.722 508.276C586.709 502.336 578.903 494.105 573.303 483.584C567.702 472.892 564.902 460.674 564.902 446.928C564.902 433.691 567.702 421.726 573.303 411.035C578.903 400.344 586.624 391.943 596.467 385.834C606.48 379.725 617.596 376.67 629.814 376.67C642.882 376.67 654.252 379.555 663.925 385.325C673.598 390.925 680.98 398.901 686.071 409.253C691.163 419.435 693.708 431.23 693.708 444.637C693.708 446.673 693.538 449.728 693.199 453.801H586.54C587.728 468.056 592.479 479.087 600.795 486.893C609.11 494.53 619.547 498.348 632.105 498.348C653.318 498.348 667.828 489.354 675.635 471.365L691.672 484.857C686.071 495.548 677.841 503.609 666.98 509.039C656.288 514.3 644.579 516.931 631.851 516.931ZM671.053 437V436.491C671.053 423.763 667.234 413.75 659.597 406.453C652.13 398.986 642.203 395.253 629.814 395.253C618.784 395.253 609.28 398.901 601.304 406.199C593.328 413.496 588.491 423.763 586.794 437H671.053Z"
    fill="black" />
  <path d="M426.676 326.02H449.84L510.17 486.136L571.264 326.02H594.429L522.135 513.119H497.697L426.676 326.02Z"
    fill="black" />
  <path
    d="M392.034 516.931C378.797 516.931 367.088 514.046 356.906 508.276C346.893 502.336 339.087 494.105 333.486 483.584C327.886 472.892 325.086 460.674 325.086 446.928C325.086 433.691 327.886 421.726 333.486 411.035C339.087 400.344 346.808 391.943 356.651 385.834C366.664 379.725 377.779 376.67 389.998 376.67C403.065 376.67 414.435 379.555 424.109 385.325C433.782 390.925 441.164 398.901 446.255 409.253C451.346 419.435 453.892 431.23 453.892 444.637C453.892 446.673 453.722 449.728 453.383 453.801H346.723C347.911 468.056 352.663 479.087 360.978 486.893C369.294 494.53 379.731 498.348 392.289 498.348C413.502 498.348 428.012 489.354 435.818 471.365L451.855 484.857C446.255 495.548 438.024 503.609 427.163 509.039C416.472 514.3 404.762 516.931 392.034 516.931ZM431.236 437V436.491C431.236 423.763 427.418 413.75 419.781 406.453C412.314 398.986 402.386 395.253 389.998 395.253C378.967 395.253 369.464 398.901 361.488 406.199C353.511 413.496 348.675 423.763 346.978 437H431.236Z"
    fill="black" />
  <path
    d="M247.704 516.934C232.261 516.934 220.127 512.437 211.303 503.443C202.648 494.278 198.32 481.72 198.32 465.768V380.746H219.194V462.713C219.194 486.642 230.055 498.606 251.777 498.606C263.996 498.606 273.584 494.618 280.542 486.642C287.5 478.666 290.979 467.465 290.979 453.04V380.746H311.853V513.116H290.979V494.278C286.567 502.085 280.627 507.855 273.16 511.588C265.693 515.152 257.208 516.934 247.704 516.934Z"
    fill="black" />
  <path d="M162.27 326.02H183.143V513.119H162.27V326.02Z" fill="black" />
  <path
    d="M12.4102 326.02H81.6496C98.4504 326.02 112.112 330.347 122.633 339.002C133.155 347.657 138.416 359.876 138.416 375.658C138.416 384.313 135.87 392.459 130.779 400.096C125.858 407.732 119.409 412.908 111.433 415.624C121.276 417.83 129.506 423.175 136.125 431.661C142.743 440.146 146.052 449.649 146.052 460.171C146.052 476.972 140.622 490.039 129.761 499.373C119.069 508.537 104.135 513.119 84.9589 513.119H12.4102V326.02ZM85.7225 493.772C98.4504 493.772 108.124 490.803 114.742 484.863C121.53 478.754 124.924 470.438 124.924 459.916C124.924 449.734 121.53 441.758 114.742 435.988C107.954 430.048 99.2989 427.079 88.7772 427.079H33.7929V493.772H85.7225ZM78.0858 407.987C90.8137 407.987 100.487 405.272 107.105 399.841C113.724 394.241 117.033 386.349 117.033 376.167C117.033 366.324 113.893 358.773 107.614 353.512C101.335 348.081 92.8501 345.366 82.1587 345.366H33.7929V407.987H78.0858Z"
    fill="black" />
</svg>