<svg xmlns="http://www.w3.org/2000/svg" width="39" height="36" viewBox="0 0 39 36" fill="none">
  <rect width="39" height="36" rx="8" fill="url(#paint0_linear_84_90)" />
  <path
    d="M17.8331 20.9167C17.7587 20.6283 17.6084 20.3651 17.3978 20.1545C17.1872 19.9439 16.924 19.7935 16.6356 19.7192L11.5231 18.4008C11.4359 18.3761 11.3591 18.3235 11.3045 18.2512C11.2498 18.1788 11.2202 18.0907 11.2202 18C11.2202 17.9093 11.2498 17.8211 11.3045 17.7488C11.3591 17.6764 11.4359 17.6239 11.5231 17.5992L16.6356 16.28C16.9239 16.2057 17.187 16.0555 17.3976 15.845C17.6082 15.6346 17.7586 15.3716 17.8331 15.0833L19.1514 9.97082C19.176 9.88325 19.2284 9.8061 19.3009 9.75115C19.3733 9.69619 19.4618 9.66644 19.5527 9.66644C19.6436 9.66644 19.7321 9.69619 19.8045 9.75115C19.877 9.8061 19.9294 9.88325 19.9539 9.97082L21.2714 15.0833C21.3458 15.3717 21.4962 15.6349 21.7068 15.8455C21.9174 16.0561 22.1806 16.2064 22.4689 16.2808L27.5814 17.5983C27.6694 17.6226 27.7469 17.675 27.8021 17.7475C27.8574 17.8201 27.8873 17.9088 27.8873 18C27.8873 18.0912 27.8574 18.1799 27.8021 18.2524C27.7469 18.325 27.6694 18.3774 27.5814 18.4017L22.4689 19.7192C22.1806 19.7935 21.9174 19.9439 21.7068 20.1545C21.4962 20.3651 21.3458 20.6283 21.2714 20.9167L19.9531 26.0292C19.9286 26.1167 19.8761 26.1939 19.8037 26.2488C19.7312 26.3038 19.6428 26.3335 19.5519 26.3335C19.4609 26.3335 19.3725 26.3038 19.3 26.2488C19.2276 26.1939 19.1751 26.1167 19.1506 26.0292L17.8331 20.9167Z"
    stroke="#1A1A1A" stroke-width="1.33333" stroke-linecap="round" stroke-linejoin="round" />
  <path d="M26.219 10.5V13.8333" stroke="#1A1A1A" stroke-width="1.33333" stroke-linecap="round"
    stroke-linejoin="round" />
  <path d="M27.8856 12.1667H24.5522" stroke="#1A1A1A" stroke-width="1.33333" stroke-linecap="round"
    stroke-linejoin="round" />
  <path d="M12.8855 22.1667V23.8334" stroke="#1A1A1A" stroke-width="1.33333" stroke-linecap="round"
    stroke-linejoin="round" />
  <path d="M13.7189 23H12.0522" stroke="#1A1A1A" stroke-width="1.33333" stroke-linecap="round"
    stroke-linejoin="round" />
  <defs>
    <linearGradient id="paint0_linear_84_90" x1="4.55224" y1="2" x2="34.5522" y2="34.5" gradientUnits="userSpaceOnUse">
      <stop stop-color="#FF5E4F" />
      <stop offset="1" stop-color="#FF8A7A" />
    </linearGradient>
  </defs>
</svg>